<svg version="1.1" xmlns="http://www.w3.org/2000/svg" xmlns:xlink="http://www.w3.org/1999/xlink" width="659" height="570"><defs/><g><g transform="translate(-430,-126) scale(1,1)"><rect fill="#C0C0C0" stroke="none" x="487" y="143" width="467" height="197" opacity="0.2"/></g><g transform="translate(-430,-126) scale(1,1)"><rect fill="#ffffff" stroke="none" x="480" y="136" width="467" height="197"/></g><g transform="translate(-430,-126) scale(1,1)"><path fill="none" stroke="#000000" d="M 480 136 L 947 136 L 947 333 L 480 333 L 480 136 Z Z" stroke-miterlimit="10"/></g><g transform="translate(-430,-126) scale(1,1)"><rect fill="#ffffff" stroke="none" x="480" y="136" width="467" height="197"/></g><g transform="translate(-430,-126) scale(1,1)"><path fill="none" stroke="#000000" d="M 480 136 L 947 136 L 947 333 L 480 333 L 480 136 Z Z" stroke-miterlimit="10"/></g><g transform="translate(-430,-126) scale(1,1)"><path fill="none" stroke="#000000" d="M 480 161 L 947 161" stroke-miterlimit="10"/></g><g transform="translate(-430,-126) scale(1,1)"><g><path fill="none" stroke="none"/><text fill="#000000" stroke="none" font-family="Arial" font-size="13px" font-style="normal" font-weight="bold" text-decoration="none" x="655.5" y="155.5">controller: Controller</text><path fill="none" stroke="#000000" d="M 778.5 155.5 L 648.5 155.5" stroke-miterlimit="10"/></g></g><g transform="translate(-430,-126) scale(1,1)"><g><path fill="none" stroke="none"/><text fill="#000000" stroke="none" font-family="Arial" font-size="13px" font-style="normal" font-weight="normal" text-decoration="none" x="485" y="178.5">+PRINTING_OPTIONS: enum = {NO, ONE, TWO}</text></g></g><g transform="translate(-430,-126) scale(1,1)"><g><path fill="none" stroke="none"/><text fill="#000000" stroke="none" font-family="Arial" font-size="13px" font-style="normal" font-weight="normal" text-decoration="none" x="485" y="193.5">-BOX_TYPE: enum = {ONE, TWO, THREE, FOUR, FIVE}</text></g></g><g transform="translate(-430,-126) scale(1,1)"><g><path fill="none" stroke="none"/><text fill="#000000" stroke="none" font-family="Arial" font-size="13px" font-style="normal" font-weight="normal" text-decoration="none" x="485" y="208.5">+cardCost: HashMap = {("1", 0.50), ("2", 0.60), ("3", 0.72), ("4", 0.90}, ("5",1.4)}</text></g></g><g transform="translate(-430,-126) scale(1,1)"><g><path fill="none" stroke="none"/><text fill="#000000" stroke="none" font-family="Arial" font-size="13px" font-style="normal" font-weight="normal" text-decoration="none" x="485" y="223.5">+extraSealable = 0.08</text></g></g><g transform="translate(-430,-126) scale(1,1)"><g><path fill="none" stroke="none"/><text fill="#000000" stroke="none" font-family="Arial" font-size="13px" font-style="normal" font-weight="normal" text-decoration="none" x="485" y="238.5">+extraOneColorPrinting = 0.13</text></g></g><g transform="translate(-430,-126) scale(1,1)"><g><path fill="none" stroke="none"/><text fill="#000000" stroke="none" font-family="Arial" font-size="13px" font-style="normal" font-weight="normal" text-decoration="none" x="485" y="253.5">+extraTwoColorPrinting = 0.16</text></g></g><g transform="translate(-430,-126) scale(1,1)"><g><path fill="none" stroke="none"/><text fill="#000000" stroke="none" font-family="Arial" font-size="13px" font-style="normal" font-weight="normal" text-decoration="none" x="485" y="268.5">+extraReBottom = 0.14</text></g></g><g transform="translate(-430,-126) scale(1,1)"><g><path fill="none" stroke="none"/><text fill="#000000" stroke="none" font-family="Arial" font-size="13px" font-style="normal" font-weight="normal" text-decoration="none" x="485" y="283.5">+extraReCorners = 0.10</text></g></g><g transform="translate(-430,-126) scale(1,1)"><g><path fill="none" stroke="none"/><text fill="#000000" stroke="none" font-family="Arial" font-size="13px" font-style="normal" font-weight="normal" text-decoration="none" x="485" y="298.5">-ofw</text></g></g><g transform="translate(-430,-126) scale(1,1)"><g><path fill="none" stroke="none"/><text fill="#000000" stroke="none" font-family="Arial" font-size="13px" font-style="normal" font-weight="normal" text-decoration="none" x="485" y="313.5">-iw</text></g></g><g transform="translate(-430,-126) scale(1,1)"><g><path fill="none" stroke="none"/><text fill="#000000" stroke="none" font-family="Arial" font-size="13px" font-style="normal" font-weight="normal" text-decoration="none" x="485" y="328.5">-model</text></g></g><g transform="translate(-430,-126) scale(1,1)"><rect fill="#C0C0C0" stroke="none" x="447" y="391" width="157" height="47" opacity="0.2"/></g><g transform="translate(-430,-126) scale(1,1)"><rect fill="#ffffff" stroke="none" x="440" y="384" width="157" height="47"/></g><g transform="translate(-430,-126) scale(1,1)"><path fill="none" stroke="#000000" d="M 440 384 L 597 384 L 597 431 L 440 431 L 440 384 Z Z" stroke-miterlimit="10"/></g><g transform="translate(-430,-126) scale(1,1)"><rect fill="#ffffff" stroke="none" x="440" y="384" width="157" height="47"/></g><g transform="translate(-430,-126) scale(1,1)"><path fill="none" stroke="#000000" d="M 440 384 L 597 384 L 597 431 L 440 431 L 440 384 Z Z" stroke-miterlimit="10"/></g><g transform="translate(-430,-126) scale(1,1)"><path fill="none" stroke="#000000" d="M 440 409 L 597 409" stroke-miterlimit="10"/></g><g transform="translate(-430,-126) scale(1,1)"><g><path fill="none" stroke="none"/><text fill="#000000" stroke="none" font-family="Arial" font-size="13px" font-style="normal" font-weight="bold" text-decoration="none" x="451" y="403.5">ofw: OrderFormWindow</text><path fill="none" stroke="#000000" d="M 592.5 403.5 L 444.5 403.5" stroke-miterlimit="10"/></g></g><g transform="translate(-430,-126) scale(1,1)"><g><path fill="none" stroke="none"/><text fill="#000000" stroke="none" font-family="Arial" font-size="13px" font-style="normal" font-weight="normal" text-decoration="none" x="445" y="426.5">+controller</text></g></g><g transform="translate(-430,-126) scale(1,1)"><rect fill="#C0C0C0" stroke="none" x="631" y="391" width="126" height="47" opacity="0.2"/></g><g transform="translate(-430,-126) scale(1,1)"><rect fill="#ffffff" stroke="none" x="624" y="384" width="126" height="47"/></g><g transform="translate(-430,-126) scale(1,1)"><path fill="none" stroke="#000000" d="M 624 384 L 750 384 L 750 431 L 624 431 L 624 384 Z Z" stroke-miterlimit="10"/></g><g transform="translate(-430,-126) scale(1,1)"><rect fill="#ffffff" stroke="none" x="624" y="384" width="126" height="47"/></g><g transform="translate(-430,-126) scale(1,1)"><path fill="none" stroke="#000000" d="M 624 384 L 750 384 L 750 431 L 624 431 L 624 384 Z Z" stroke-miterlimit="10"/></g><g transform="translate(-430,-126) scale(1,1)"><path fill="none" stroke="#000000" d="M 624 409 L 750 409" stroke-miterlimit="10"/></g><g transform="translate(-430,-126) scale(1,1)"><g><path fill="none" stroke="none"/><text fill="#000000" stroke="none" font-family="Arial" font-size="13px" font-style="normal" font-weight="bold" text-decoration="none" x="633.5" y="403.5">iw: InvoiceWindow</text><path fill="none" stroke="#000000" d="M 745.5 403.5 L 628.5 403.5" stroke-miterlimit="10"/></g></g><g transform="translate(-430,-126) scale(1,1)"><g><path fill="none" stroke="none"/><text fill="#000000" stroke="none" font-family="Arial" font-size="13px" font-style="normal" font-weight="normal" text-decoration="none" x="629" y="426.5">+controller</text></g></g><g transform="translate(-430,-126) scale(1,1)"><rect fill="#C0C0C0" stroke="none" x="839" y="391" width="107" height="47" opacity="0.2"/></g><g transform="translate(-430,-126) scale(1,1)"><rect fill="#ffffff" stroke="none" x="832" y="384" width="107" height="47"/></g><g transform="translate(-430,-126) scale(1,1)"><path fill="none" stroke="#000000" d="M 832 384 L 939 384 L 939 431 L 832 431 L 832 384 Z Z" stroke-miterlimit="10"/></g><g transform="translate(-430,-126) scale(1,1)"><rect fill="#ffffff" stroke="none" x="832" y="384" width="107" height="47"/></g><g transform="translate(-430,-126) scale(1,1)"><path fill="none" stroke="#000000" d="M 832 384 L 939 384 L 939 431 L 832 431 L 832 384 Z Z" stroke-miterlimit="10"/></g><g transform="translate(-430,-126) scale(1,1)"><path fill="none" stroke="#000000" d="M 832 409 L 939 409" stroke-miterlimit="10"/></g><g transform="translate(-430,-126) scale(1,1)"><g><path fill="none" stroke="none"/><text fill="#000000" stroke="none" font-family="Arial" font-size="13px" font-style="normal" font-weight="bold" text-decoration="none" x="846.5" y="403.5">model: Model</text><path fill="none" stroke="#000000" d="M 928 403.5 L 843 403.5" stroke-miterlimit="10"/></g></g><g transform="translate(-430,-126) scale(1,1)"><g><path fill="none" stroke="none"/><text fill="#000000" stroke="none" font-family="Arial" font-size="13px" font-style="normal" font-weight="normal" text-decoration="none" x="837" y="426.5">+orders = [t1,t2]</text></g></g><g transform="translate(-430,-126) scale(1,1)"><rect fill="#C0C0C0" stroke="none" x="719" y="511" width="163" height="182" opacity="0.2"/></g><g transform="translate(-430,-126) scale(1,1)"><rect fill="#ffffff" stroke="none" x="712" y="504" width="163" height="182"/></g><g transform="translate(-430,-126) scale(1,1)"><path fill="none" stroke="#000000" d="M 712 504 L 875 504 L 875 686 L 712 686 L 712 504 Z Z" stroke-miterlimit="10"/></g><g transform="translate(-430,-126) scale(1,1)"><rect fill="#ffffff" stroke="none" x="712" y="504" width="163" height="182"/></g><g transform="translate(-430,-126) scale(1,1)"><path fill="none" stroke="#000000" d="M 712 504 L 875 504 L 875 686 L 712 686 L 712 504 Z Z" stroke-miterlimit="10"/></g><g transform="translate(-430,-126) scale(1,1)"><path fill="none" stroke="#000000" d="M 712 529 L 875 529" stroke-miterlimit="10"/></g><g transform="translate(-430,-126) scale(1,1)"><g><path fill="none" stroke="none"/><text fill="#000000" stroke="none" font-family="Arial" font-size="13px" font-style="normal" font-weight="bold" text-decoration="none" x="746" y="523.5">t1: BoxTypeOne</text><path fill="none" stroke="#000000" d="M 842.5 523.5 L 744.5 523.5" stroke-miterlimit="10"/></g></g><g transform="translate(-430,-126) scale(1,1)"><g><path fill="none" stroke="none"/><text fill="#000000" stroke="none" font-family="Arial" font-size="13px" font-style="normal" font-weight="normal" text-decoration="none" x="717" y="546.5">-height = 0.25</text></g></g><g transform="translate(-430,-126) scale(1,1)"><g><path fill="none" stroke="none"/><text fill="#000000" stroke="none" font-family="Arial" font-size="13px" font-style="normal" font-weight="normal" text-decoration="none" x="717" y="561.5">-length = 0.30</text></g></g><g transform="translate(-430,-126) scale(1,1)"><g><path fill="none" stroke="none"/><text fill="#000000" stroke="none" font-family="Arial" font-size="13px" font-style="normal" font-weight="normal" text-decoration="none" x="717" y="576.5">-width = 0.10</text></g></g><g transform="translate(-430,-126) scale(1,1)"><g><path fill="none" stroke="none"/><text fill="#000000" stroke="none" font-family="Arial" font-size="13px" font-style="normal" font-weight="normal" text-decoration="none" x="717" y="591.5">-grade = 2</text></g></g><g transform="translate(-430,-126) scale(1,1)"><g><path fill="none" stroke="none"/><text fill="#000000" stroke="none" font-family="Arial" font-size="13px" font-style="normal" font-weight="normal" text-decoration="none" x="717" y="606.5">-colorPrinting = CP.NO</text></g></g><g transform="translate(-430,-126) scale(1,1)"><g><path fill="none" stroke="none"/><text fill="#000000" stroke="none" font-family="Arial" font-size="13px" font-style="normal" font-weight="normal" text-decoration="none" x="717" y="621.5">-reBottom = False</text></g></g><g transform="translate(-430,-126) scale(1,1)"><g><path fill="none" stroke="none"/><text fill="#000000" stroke="none" font-family="Arial" font-size="13px" font-style="normal" font-weight="normal" text-decoration="none" x="717" y="636.5">-reCorners = False</text></g></g><g transform="translate(-430,-126) scale(1,1)"><g><path fill="none" stroke="none"/><text fill="#000000" stroke="none" font-family="Arial" font-size="13px" font-style="normal" font-weight="normal" text-decoration="none" x="717" y="651.5">-sealableTop = False</text></g></g><g transform="translate(-430,-126) scale(1,1)"><g><path fill="none" stroke="none"/><text fill="#000000" stroke="none" font-family="Arial" font-size="13px" font-style="normal" font-weight="normal" text-decoration="none" x="717" y="666.5">-count = 10</text></g></g><g transform="translate(-430,-126) scale(1,1)"><g><path fill="none" stroke="none"/><text fill="#000000" stroke="none" font-family="Arial" font-size="13px" font-style="normal" font-weight="normal" text-decoration="none" x="717" y="681.5">-cost = 1.56</text></g></g><g transform="translate(-430,-126) scale(1,1)"><rect fill="#C0C0C0" stroke="none" x="935" y="511" width="151" height="182" opacity="0.2"/></g><g transform="translate(-430,-126) scale(1,1)"><rect fill="#ffffff" stroke="none" x="928" y="504" width="151" height="182"/></g><g transform="translate(-430,-126) scale(1,1)"><path fill="none" stroke="#000000" d="M 928 504 L 1079 504 L 1079 686 L 928 686 L 928 504 Z Z" stroke-miterlimit="10"/></g><g transform="translate(-430,-126) scale(1,1)"><rect fill="#ffffff" stroke="none" x="928" y="504" width="151" height="182"/></g><g transform="translate(-430,-126) scale(1,1)"><path fill="none" stroke="#000000" d="M 928 504 L 1079 504 L 1079 686 L 928 686 L 928 504 Z Z" stroke-miterlimit="10"/></g><g transform="translate(-430,-126) scale(1,1)"><path fill="none" stroke="#000000" d="M 928 529 L 1079 529" stroke-miterlimit="10"/></g><g transform="translate(-430,-126) scale(1,1)"><g><path fill="none" stroke="none"/><text fill="#000000" stroke="none" font-family="Arial" font-size="13px" font-style="normal" font-weight="bold" text-decoration="none" x="956" y="523.5">t2: BoxTypeTwo</text><path fill="none" stroke="#000000" d="M 1053 523.5 L 954 523.5" stroke-miterlimit="10"/></g></g><g transform="translate(-430,-126) scale(1,1)"><g><path fill="none" stroke="none"/><text fill="#000000" stroke="none" font-family="Arial" font-size="13px" font-style="normal" font-weight="normal" text-decoration="none" x="933" y="546.5">-height = 0.40</text></g></g><g transform="translate(-430,-126) scale(1,1)"><g><path fill="none" stroke="none"/><text fill="#000000" stroke="none" font-family="Arial" font-size="13px" font-style="normal" font-weight="normal" text-decoration="none" x="933" y="561.5">-length = 0.30</text></g></g><g transform="translate(-430,-126) scale(1,1)"><g><path fill="none" stroke="none"/><text fill="#000000" stroke="none" font-family="Arial" font-size="13px" font-style="normal" font-weight="normal" text-decoration="none" x="933" y="576.5">-width = 0.20</text></g></g><g transform="translate(-430,-126) scale(1,1)"><g><path fill="none" stroke="none"/><text fill="#000000" stroke="none" font-family="Arial" font-size="13px" font-style="normal" font-weight="normal" text-decoration="none" x="933" y="591.5">-grade = 4</text></g></g><g transform="translate(-430,-126) scale(1,1)"><g><path fill="none" stroke="none"/><text fill="#000000" stroke="none" font-family="Arial" font-size="13px" font-style="normal" font-weight="normal" text-decoration="none" x="933" y="606.5">-colorPrinting = CP.ONE</text></g></g><g transform="translate(-430,-126) scale(1,1)"><g><path fill="none" stroke="none"/><text fill="#000000" stroke="none" font-family="Arial" font-size="13px" font-style="normal" font-weight="normal" text-decoration="none" x="933" y="621.5">-reBottom = False</text></g></g><g transform="translate(-430,-126) scale(1,1)"><g><path fill="none" stroke="none"/><text fill="#000000" stroke="none" font-family="Arial" font-size="13px" font-style="normal" font-weight="normal" text-decoration="none" x="933" y="636.5">-reCorners = False</text></g></g><g transform="translate(-430,-126) scale(1,1)"><g><path fill="none" stroke="none"/><text fill="#000000" stroke="none" font-family="Arial" font-size="13px" font-style="normal" font-weight="normal" text-decoration="none" x="933" y="651.5">-sealableTop = False</text></g></g><g transform="translate(-430,-126) scale(1,1)"><g><path fill="none" stroke="none"/><text fill="#000000" stroke="none" font-family="Arial" font-size="13px" font-style="normal" font-weight="normal" text-decoration="none" x="933" y="666.5">-count = 10</text></g></g><g transform="translate(-430,-126) scale(1,1)"><g><path fill="none" stroke="none"/><text fill="#000000" stroke="none" font-family="Arial" font-size="13px" font-style="normal" font-weight="normal" text-decoration="none" x="933" y="681.5">-cost = 4.68</text></g></g><g transform="translate(-430,-126) scale(1,1)"><path fill="none" stroke="#000000" d="M 518 333 L 518 384" stroke-miterlimit="10"/></g><g transform="translate(-430,-126) scale(1,1)"><path fill="none" stroke="#000000" d="M 688 333 L 688 384" stroke-miterlimit="10"/></g><g transform="translate(-430,-126) scale(1,1)"><path fill="none" stroke="#000000" d="M 880 333 L 880 384" stroke-miterlimit="10"/></g><g transform="translate(-430,-126) scale(1,1)"><path fill="none" stroke="#000000" d="M 848 431 L 848 464 M 848 464 A 8 8 0 0 1 840 472 L 768 472 M 768 472 A 8 8 0 0 0 760 480 L 760 504" stroke-miterlimit="10"/></g><g transform="translate(-430,-126) scale(1,1)"><path fill="none" stroke="#000000" d="M 896 431 L 896 464 M 896 464 A 8 8 0 0 0 904 472 L 984 472 M 984 472 A 8 8 0 0 1 992 480 L 992 504" stroke-miterlimit="10"/></g></g></svg>