<svg version="1.1" xmlns="http://www.w3.org/2000/svg" xmlns:xlink="http://www.w3.org/1999/xlink" width="636" height="844"><defs/><g><g transform="translate(-102,-110) scale(1,1)"><rect fill="#C0C0C0" stroke="none" x="399" y="127" width="336" height="824" opacity="0.2"/></g><g transform="translate(-102,-110) scale(1,1)"><rect fill="#ffffff" stroke="none" x="392" y="120" width="336" height="824"/></g><g transform="translate(-102,-110) scale(1,1)"><path fill="none" stroke="#000000" d="M 392 120 L 728 120 L 728 944 L 392 944 L 392 120 Z Z" stroke-miterlimit="10"/></g><g transform="translate(-102,-110) scale(1,1)"><g><path fill="none" stroke="none"/><text fill="#000000" stroke="none" font-family="Arial" font-size="13px" font-style="normal" font-weight="bold" text-decoration="none" x="525.5" y="139.5">Place Order</text></g></g><g transform="translate(-102,-110) scale(1,1)"><path fill="#ffffff" stroke="none" d="M 127.82072727272728 489.68 C 127.82072727272728 484.886167936 131.70656959767274 481 136.5 481 C 141.29343040232726 481 145.17927272727272 484.886167936 145.17927272727272 489.68 C 145.17927272727272 494.473832064 141.29343040232726 498.36 136.5 498.36 C 131.70656959767274 498.36 127.82072727272728 494.473832064 127.82072727272728 489.68 Z"/></g><g transform="translate(-102,-110) scale(1,1)"><path fill="none" stroke="#000000" d="M 127.82072727272728 489.68 C 127.82072727272728 484.886167936 131.70656959767274 481 136.5 481 C 141.29343040232726 481 145.17927272727272 484.886167936 145.17927272727272 489.68 C 145.17927272727272 494.473832064 141.29343040232726 498.36 136.5 498.36 C 131.70656959767274 498.36 127.82072727272728 494.473832064 127.82072727272728 489.68 Z" stroke-miterlimit="10"/></g><g transform="translate(-102,-110) scale(1,1)"><path fill="none" stroke="#000000" d="M 136.5 498.36 L 136.5 515.64" stroke-miterlimit="10"/></g><g transform="translate(-102,-110) scale(1,1)"><path fill="none" stroke="#000000" d="M 127.31018181818183 504.84 L 145.68981818181817 504.84" stroke-miterlimit="10"/></g><g transform="translate(-102,-110) scale(1,1)"><path fill="none" stroke="#000000" d="M 136.5 515.64 L 123.73636363636365 533" stroke-miterlimit="10"/></g><g transform="translate(-102,-110) scale(1,1)"><path fill="none" stroke="#000000" d="M 136.5 515.64 L 149.26363636363635 533" stroke-miterlimit="10"/></g><g transform="translate(-102,-110) scale(1,1)"><g><path fill="none" stroke="none"/><text fill="#000000" stroke="none" font-family="Arial" font-size="13px" font-style="normal" font-weight="bold" text-decoration="none" x="123" y="553.5">User</text></g></g><g transform="translate(-102,-110) scale(1,1)"><path fill="#C0C0C0" stroke="none" d="M 438 178.5 C 438 163.31216799999999 494.85983039999996 151 565 151 C 635.1401696 151 692 163.31216799999999 692 178.5 C 692 193.68783200000001 635.1401696 206 565 206 C 494.85983039999996 206 438 193.68783200000001 438 178.5 Z" opacity="0.2"/></g><g transform="translate(-102,-110) scale(1,1)"><path fill="#ffffff" stroke="none" d="M 431 171.5 C 431 156.31216799999999 487.85983039999996 144 558 144 C 628.1401696 144 685 156.31216799999999 685 171.5 C 685 186.68783200000001 628.1401696 199 558 199 C 487.85983039999996 199 431 186.68783200000001 431 171.5 Z"/></g><g transform="translate(-102,-110) scale(1,1)"><path fill="none" stroke="#000000" d="M 431 171.5 C 431 156.31216799999999 487.85983039999996 144 558 144 C 628.1401696 144 685 156.31216799999999 685 171.5 C 685 186.68783200000001 628.1401696 199 558 199 C 487.85983039999996 199 431 186.68783200000001 431 171.5 Z" stroke-miterlimit="10"/></g><g transform="translate(-102,-110) scale(1,1)"><g><path fill="none" stroke="none"/><text fill="#000000" stroke="none" font-family="Arial" font-size="13px" font-style="normal" font-weight="bold" text-decoration="none" x="522" y="178.5">Input Length</text></g></g><g transform="translate(-102,-110) scale(1,1)"><path fill="#C0C0C0" stroke="none" d="M 438 252.5 C 438 237.31216799999999 494.85983039999996 225 565 225 C 635.1401696 225 692 237.31216799999999 692 252.5 C 692 267.687832 635.1401696 280 565 280 C 494.85983039999996 280 438 267.687832 438 252.5 Z" opacity="0.2"/></g><g transform="translate(-102,-110) scale(1,1)"><path fill="#ffffff" stroke="none" d="M 431 245.5 C 431 230.31216799999999 487.85983039999996 218 558 218 C 628.1401696 218 685 230.31216799999999 685 245.5 C 685 260.687832 628.1401696 273 558 273 C 487.85983039999996 273 431 260.687832 431 245.5 Z"/></g><g transform="translate(-102,-110) scale(1,1)"><path fill="none" stroke="#000000" d="M 431 245.5 C 431 230.31216799999999 487.85983039999996 218 558 218 C 628.1401696 218 685 230.31216799999999 685 245.5 C 685 260.687832 628.1401696 273 558 273 C 487.85983039999996 273 431 260.687832 431 245.5 Z" stroke-miterlimit="10"/></g><g transform="translate(-102,-110) scale(1,1)"><g><path fill="none" stroke="none"/><text fill="#000000" stroke="none" font-family="Arial" font-size="13px" font-style="normal" font-weight="bold" text-decoration="none" x="523" y="252.5">Input Height</text></g></g><g transform="translate(-102,-110) scale(1,1)"><path fill="#C0C0C0" stroke="none" d="M 438 326.5 C 438 311.312168 494.85983039999996 299 565 299 C 635.1401696 299 692 311.312168 692 326.5 C 692 341.687832 635.1401696 354 565 354 C 494.85983039999996 354 438 341.687832 438 326.5 Z" opacity="0.2"/></g><g transform="translate(-102,-110) scale(1,1)"><path fill="#ffffff" stroke="none" d="M 431 319.5 C 431 304.312168 487.85983039999996 292 558 292 C 628.1401696 292 685 304.312168 685 319.5 C 685 334.687832 628.1401696 347 558 347 C 487.85983039999996 347 431 334.687832 431 319.5 Z"/></g><g transform="translate(-102,-110) scale(1,1)"><path fill="none" stroke="#000000" d="M 431 319.5 C 431 304.312168 487.85983039999996 292 558 292 C 628.1401696 292 685 304.312168 685 319.5 C 685 334.687832 628.1401696 347 558 347 C 487.85983039999996 347 431 334.687832 431 319.5 Z" stroke-miterlimit="10"/></g><g transform="translate(-102,-110) scale(1,1)"><g><path fill="none" stroke="none"/><text fill="#000000" stroke="none" font-family="Arial" font-size="13px" font-style="normal" font-weight="bold" text-decoration="none" x="525" y="326.5">Input Width</text></g></g><g transform="translate(-102,-110) scale(1,1)"><path fill="#C0C0C0" stroke="none" d="M 438 400.5 C 438 385.312168 494.85983039999996 373 565 373 C 635.1401696 373 692 385.312168 692 400.5 C 692 415.687832 635.1401696 428 565 428 C 494.85983039999996 428 438 415.687832 438 400.5 Z" opacity="0.2"/></g><g transform="translate(-102,-110) scale(1,1)"><path fill="#ffffff" stroke="none" d="M 431 393.5 C 431 378.312168 487.85983039999996 366 558 366 C 628.1401696 366 685 378.312168 685 393.5 C 685 408.687832 628.1401696 421 558 421 C 487.85983039999996 421 431 408.687832 431 393.5 Z"/></g><g transform="translate(-102,-110) scale(1,1)"><path fill="none" stroke="#000000" d="M 431 393.5 C 431 378.312168 487.85983039999996 366 558 366 C 628.1401696 366 685 378.312168 685 393.5 C 685 408.687832 628.1401696 421 558 421 C 487.85983039999996 421 431 408.687832 431 393.5 Z" stroke-miterlimit="10"/></g><g transform="translate(-102,-110) scale(1,1)"><g><path fill="none" stroke="none"/><text fill="#000000" stroke="none" font-family="Arial" font-size="13px" font-style="normal" font-weight="bold" text-decoration="none" x="520" y="400.5">Select Grade</text></g></g><g transform="translate(-102,-110) scale(1,1)"><path fill="#C0C0C0" stroke="none" d="M 438 548.5 C 438 533.312168 494.85983039999996 521 565 521 C 635.1401696 521 692 533.312168 692 548.5 C 692 563.687832 635.1401696 576 565 576 C 494.85983039999996 576 438 563.687832 438 548.5 Z" opacity="0.2"/></g><g transform="translate(-102,-110) scale(1,1)"><path fill="#ffffff" stroke="none" d="M 431 541.5 C 431 526.312168 487.85983039999996 514 558 514 C 628.1401696 514 685 526.312168 685 541.5 C 685 556.687832 628.1401696 569 558 569 C 487.85983039999996 569 431 556.687832 431 541.5 Z"/></g><g transform="translate(-102,-110) scale(1,1)"><path fill="none" stroke="#000000" d="M 431 541.5 C 431 526.312168 487.85983039999996 514 558 514 C 628.1401696 514 685 526.312168 685 541.5 C 685 556.687832 628.1401696 569 558 569 C 487.85983039999996 569 431 556.687832 431 541.5 Z" stroke-miterlimit="10"/></g><g transform="translate(-102,-110) scale(1,1)"><g><path fill="none" stroke="none"/><text fill="#000000" stroke="none" font-family="Arial" font-size="13px" font-style="normal" font-weight="bold" text-decoration="none" x="496" y="548.5">Choose Sealable Top</text></g></g><g transform="translate(-102,-110) scale(1,1)"><path fill="#C0C0C0" stroke="none" d="M 438 622.5 C 438 607.312168 494.85983039999996 595 565 595 C 635.1401696 595 692 607.312168 692 622.5 C 692 637.687832 635.1401696 650 565 650 C 494.85983039999996 650 438 637.687832 438 622.5 Z" opacity="0.2"/></g><g transform="translate(-102,-110) scale(1,1)"><path fill="#ffffff" stroke="none" d="M 431 615.5 C 431 600.312168 487.85983039999996 588 558 588 C 628.1401696 588 685 600.312168 685 615.5 C 685 630.687832 628.1401696 643 558 643 C 487.85983039999996 643 431 630.687832 431 615.5 Z"/></g><g transform="translate(-102,-110) scale(1,1)"><path fill="none" stroke="#000000" d="M 431 615.5 C 431 600.312168 487.85983039999996 588 558 588 C 628.1401696 588 685 600.312168 685 615.5 C 685 630.687832 628.1401696 643 558 643 C 487.85983039999996 643 431 630.687832 431 615.5 Z" stroke-miterlimit="10"/></g><g transform="translate(-102,-110) scale(1,1)"><g><path fill="none" stroke="none"/><text fill="#000000" stroke="none" font-family="Arial" font-size="13px" font-style="normal" font-weight="bold" text-decoration="none" x="480" y="622.5">Choose Reinforced Bottom</text></g></g><g transform="translate(-102,-110) scale(1,1)"><path fill="#C0C0C0" stroke="none" d="M 438 696.5 C 438 681.312168 494.85983039999996 669 565 669 C 635.1401696 669 692 681.312168 692 696.5 C 692 711.687832 635.1401696 724 565 724 C 494.85983039999996 724 438 711.687832 438 696.5 Z" opacity="0.2"/></g><g transform="translate(-102,-110) scale(1,1)"><path fill="#ffffff" stroke="none" d="M 431 689.5 C 431 674.312168 487.85983039999996 662 558 662 C 628.1401696 662 685 674.312168 685 689.5 C 685 704.687832 628.1401696 717 558 717 C 487.85983039999996 717 431 704.687832 431 689.5 Z"/></g><g transform="translate(-102,-110) scale(1,1)"><path fill="none" stroke="#000000" d="M 431 689.5 C 431 674.312168 487.85983039999996 662 558 662 C 628.1401696 662 685 674.312168 685 689.5 C 685 704.687832 628.1401696 717 558 717 C 487.85983039999996 717 431 704.687832 431 689.5 Z" stroke-miterlimit="10"/></g><g transform="translate(-102,-110) scale(1,1)"><g><path fill="none" stroke="none"/><text fill="#000000" stroke="none" font-family="Arial" font-size="13px" font-style="normal" font-weight="bold" text-decoration="none" x="478.5" y="696.5">Choose Reinforced Corners</text></g></g><g transform="translate(-102,-110) scale(1,1)"><path fill="#C0C0C0" stroke="none" d="M 438 844.5 C 438 829.312168 494.85983039999996 817 565 817 C 635.1401696 817 692 829.312168 692 844.5 C 692 859.687832 635.1401696 872 565 872 C 494.85983039999996 872 438 859.687832 438 844.5 Z" opacity="0.2"/></g><g transform="translate(-102,-110) scale(1,1)"><path fill="#ffffff" stroke="none" d="M 431 837.5 C 431 822.312168 487.85983039999996 810 558 810 C 628.1401696 810 685 822.312168 685 837.5 C 685 852.687832 628.1401696 865 558 865 C 487.85983039999996 865 431 852.687832 431 837.5 Z"/></g><g transform="translate(-102,-110) scale(1,1)"><path fill="none" stroke="#000000" d="M 431 837.5 C 431 822.312168 487.85983039999996 810 558 810 C 628.1401696 810 685 822.312168 685 837.5 C 685 852.687832 628.1401696 865 558 865 C 487.85983039999996 865 431 852.687832 431 837.5 Z" stroke-miterlimit="10"/></g><g transform="translate(-102,-110) scale(1,1)"><g><path fill="none" stroke="none"/><text fill="#000000" stroke="none" font-family="Arial" font-size="13px" font-style="normal" font-weight="bold" text-decoration="none" x="508.5" y="844.5">Generate Invoice</text></g></g><g transform="translate(-102,-110) scale(1,1)"><path fill="#C0C0C0" stroke="none" d="M 438 918.5 C 438 903.312168 494.85983039999996 891 565 891 C 635.1401696 891 692 903.312168 692 918.5 C 692 933.687832 635.1401696 946 565 946 C 494.85983039999996 946 438 933.687832 438 918.5 Z" opacity="0.2"/></g><g transform="translate(-102,-110) scale(1,1)"><path fill="#ffffff" stroke="none" d="M 431 911.5 C 431 896.312168 487.85983039999996 884 558 884 C 628.1401696 884 685 896.312168 685 911.5 C 685 926.687832 628.1401696 939 558 939 C 487.85983039999996 939 431 926.687832 431 911.5 Z"/></g><g transform="translate(-102,-110) scale(1,1)"><path fill="none" stroke="#000000" d="M 431 911.5 C 431 896.312168 487.85983039999996 884 558 884 C 628.1401696 884 685 896.312168 685 911.5 C 685 926.687832 628.1401696 939 558 939 C 487.85983039999996 939 431 926.687832 431 911.5 Z" stroke-miterlimit="10"/></g><g transform="translate(-102,-110) scale(1,1)"><g><path fill="none" stroke="none"/><text fill="#000000" stroke="none" font-family="Arial" font-size="13px" font-style="normal" font-weight="bold" text-decoration="none" x="546.5" y="918.5">Exit</text></g></g><g transform="translate(-102,-110) scale(1,1)"><path fill="#C0C0C0" stroke="none" d="M 438 770.5 C 438 755.312168 494.85983039999996 743 565 743 C 635.1401696 743 692 755.312168 692 770.5 C 692 785.687832 635.1401696 798 565 798 C 494.85983039999996 798 438 785.687832 438 770.5 Z" opacity="0.2"/></g><g transform="translate(-102,-110) scale(1,1)"><path fill="#ffffff" stroke="none" d="M 431 763.5 C 431 748.312168 487.85983039999996 736 558 736 C 628.1401696 736 685 748.312168 685 763.5 C 685 778.687832 628.1401696 791 558 791 C 487.85983039999996 791 431 778.687832 431 763.5 Z"/></g><g transform="translate(-102,-110) scale(1,1)"><path fill="none" stroke="#000000" d="M 431 763.5 C 431 748.312168 487.85983039999996 736 558 736 C 628.1401696 736 685 748.312168 685 763.5 C 685 778.687832 628.1401696 791 558 791 C 487.85983039999996 791 431 778.687832 431 763.5 Z" stroke-miterlimit="10"/></g><g transform="translate(-102,-110) scale(1,1)"><g><path fill="none" stroke="none"/><text fill="#000000" stroke="none" font-family="Arial" font-size="13px" font-style="normal" font-weight="bold" text-decoration="none" x="528.5" y="770.5">Add Order</text></g></g><g transform="translate(-102,-110) scale(1,1)"><path fill="none" stroke="#000000" d="M 162 502 L 513 274" stroke-miterlimit="10"/></g><g transform="translate(-102,-110) scale(1,1)"><path fill="none" stroke="#000000" d="M 162 507 L 497 348" stroke-miterlimit="10"/></g><g transform="translate(-102,-110) scale(1,1)"><path fill="none" stroke="#000000" d="M 162 511 L 461 422" stroke-miterlimit="10"/></g><g transform="translate(-102,-110) scale(1,1)"><path fill="none" stroke="#000000" d="M 162 516 L 430 483" stroke-miterlimit="10"/></g><g transform="translate(-102,-110) scale(1,1)"><path fill="#C0C0C0" stroke="none" d="M 438 474.5 C 438 459.312168 494.85983039999996 447 565 447 C 635.1401696 447 692 459.312168 692 474.5 C 692 489.687832 635.1401696 502 565 502 C 494.85983039999996 502 438 489.687832 438 474.5 Z" opacity="0.2"/></g><g transform="translate(-102,-110) scale(1,1)"><path fill="#ffffff" stroke="none" d="M 431 467.5 C 431 452.312168 487.85983039999996 440 558 440 C 628.1401696 440 685 452.312168 685 467.5 C 685 482.687832 628.1401696 495 558 495 C 487.85983039999996 495 431 482.687832 431 467.5 Z"/></g><g transform="translate(-102,-110) scale(1,1)"><path fill="none" stroke="#000000" d="M 431 467.5 C 431 452.312168 487.85983039999996 440 558 440 C 628.1401696 440 685 452.312168 685 467.5 C 685 482.687832 628.1401696 495 558 495 C 487.85983039999996 495 431 482.687832 431 467.5 Z" stroke-miterlimit="10"/></g><g transform="translate(-102,-110) scale(1,1)"><g><path fill="none" stroke="none"/><text fill="#000000" stroke="none" font-family="Arial" font-size="13px" font-style="normal" font-weight="bold" text-decoration="none" x="498.5" y="474.5">Select Color Printing</text></g></g><g transform="translate(-102,-110) scale(1,1)"><path fill="none" stroke="#000000" d="M 162 520 L 430 534" stroke-miterlimit="10"/></g><g transform="translate(-102,-110) scale(1,1)"><path fill="none" stroke="#000000" d="M 162 525 L 435 587" stroke-miterlimit="10"/></g><g transform="translate(-102,-110) scale(1,1)"><path fill="none" stroke="#000000" d="M 162 529 L 488 661" stroke-miterlimit="10"/></g><g transform="translate(-102,-110) scale(1,1)"><path fill="none" stroke="#000000" d="M 162 534 L 510 735" stroke-miterlimit="10"/></g><g transform="translate(-102,-110) scale(1,1)"><path fill="none" stroke="#000000" d="M 162 539 L 521 809" stroke-miterlimit="10"/></g><g transform="translate(-102,-110) scale(1,1)"><path fill="none" stroke="#000000" d="M 162 543 L 528 883" stroke-miterlimit="10"/></g><g transform="translate(-102,-110) scale(1,1)"><path fill="none" stroke="#000000" d="M 162 498 L 523 200" stroke-miterlimit="10"/></g></g></svg>